<svg viewBox="0 0 667 155" version="1.1" xmlns="http://www.w3.org/2000/svg" xmlns:xlink="http://www.w3.org/1999/xlink">
    <g stroke="none" stroke-width="1" fill="none" fill-rule="evenodd">
        <g transform="translate(0.767442, 0.288666)">
            <g transform="translate(189.323843, 37.907692)" fill="#005AE1">
                <path d="M0,0 L26.9796303,0 C32.7635276,0 37.5422248,0.660457041 41.3158652,1.98139094 C45.0895055,3.30232483 48.0872122,5.05164348 50.3090753,7.22939937 C52.5309383,9.40715525 54.0826923,11.9418823 54.964384,14.8336565 C55.8460757,17.7254307 56.2869149,20.7421128 56.2869149,23.8837935 C56.2869149,27.2396796 55.8460757,30.4527138 54.964384,33.5229926 C54.0826923,36.5932714 52.5309383,39.2886501 50.3090753,41.6092097 C48.0872122,43.9297692 45.1247727,45.7683388 41.4216676,47.1249737 C37.7185626,48.4816085 33.0456669,49.1599157 27.4028402,49.1599157 L15.5529633,49.1599157 L15.5529633,76.47098 L0,76.47098 L0,0 Z M26.8738278,35.8792413 C29.6247058,35.8792413 31.8994362,35.5936383 33.6980872,35.0224236 C35.4967382,34.4512089 36.9250573,33.6658006 37.9830873,32.6661749 C39.0411173,31.6665493 39.7640936,30.4348861 40.152038,28.9711486 C40.5399823,27.507411 40.7339516,25.9187441 40.7339516,24.2051001 C40.7339516,22.4200543 40.5223487,20.8492376 40.0991367,19.4926027 C39.6759247,18.1359679 38.9353148,16.9935557 37.8772848,16.0653319 C36.8192548,15.1371081 35.3909358,14.4231005 33.5922847,13.9232877 C31.7936337,13.4234748 29.5189033,13.1735722 26.7680253,13.1735722 L15.5529633,13.1735722 L15.5529633,35.8792413 L26.8738278,35.8792413 Z M112.479783,59.0133193 C111.492288,65.2966805 109.005955,70.0626813 105.020709,73.3114647 C101.035463,76.5602481 95.2340184,78.1846154 87.6162023,78.1846154 C78.4466089,78.1846154 71.5518835,75.614188 66.9318191,70.4732561 C62.3117548,65.3323241 60.0017572,58.0494465 60.0017572,48.6244046 C60.0017572,43.9118837 60.6718329,39.717089 62.0120042,36.0398946 C63.3521755,32.3627003 65.2389674,29.238917 67.6724364,26.668451 C70.1059054,24.097985 73.0154443,22.1523143 76.4011403,20.8313804 C79.7868364,19.5104465 83.525153,18.8499895 87.6162023,18.8499895 C96.0804424,18.8499895 102.446161,21.3133157 106.713548,26.2400421 C110.980936,31.1667686 113.114598,37.8070394 113.114598,46.1610537 L113.114598,52.1587777 L74.8141033,52.1587777 C74.9551739,56.6570931 76.0837223,60.1735806 78.1997824,62.7083456 C80.3158424,65.2431107 83.4898848,66.5104742 87.7220048,66.5104742 C93.5764375,66.5104742 97.032617,64.0114475 98.090647,59.0133193 L112.479783,59.0133193 Z M98.8312643,42.3053741 C98.8312643,38.4496751 97.8966852,35.4508432 96.0274988,33.3087882 C94.1583125,31.1667332 91.2487736,30.0957218 87.2987949,30.0957218 C85.3238056,30.0957218 83.5957158,30.4170252 82.1144738,31.0596417 C80.6332318,31.7022582 79.3812484,32.5769175 78.3584861,33.6836459 C77.3357237,34.7903743 76.5422131,36.075588 75.9779305,37.5393256 C75.4136478,39.0030632 75.0962435,40.5917301 75.0257082,42.3053741 L98.8312643,42.3053741 Z M122.754379,20.5636249 L137.143515,20.5636249 L137.143515,28.2749842 C139.33011,24.9904999 141.922245,22.5985744 144.919997,21.0991359 C147.917748,19.5996975 151.03889,18.8499895 154.283515,18.8499895 C160.56116,18.8499895 165.216422,20.5100572 168.249442,23.8302424 C171.282461,27.1504276 172.798948,32.3805333 172.798948,39.5207165 L172.798948,76.47098 L157.986602,76.47098 L157.986602,41.5556586 C157.986602,37.6285578 157.245992,34.9510293 155.76475,33.5229926 C154.283508,32.094956 152.308548,31.3809484 149.839811,31.3809484 C147.935357,31.3809484 146.295436,31.6665514 144.919997,32.2377661 C143.544558,32.8089807 142.257307,33.6300895 141.058206,34.701117 C140.070712,35.7007426 139.241934,36.8967054 138.571848,38.2890411 C137.901763,39.6813768 137.566725,41.198643 137.566725,42.8408851 L137.566725,76.47098 L122.754379,76.47098 L122.754379,20.5636249 Z M183.919963,20.5636249 L198.309099,20.5636249 L198.309099,28.2749842 C200.495695,24.9904999 203.087829,22.5985744 206.085581,21.0991359 C209.083333,19.5996975 212.204474,18.8499895 215.4491,18.8499895 C221.726744,18.8499895 226.382007,20.5100572 229.415026,23.8302424 C232.448045,27.1504276 233.964532,32.3805333 233.964532,39.5207165 L233.964532,76.47098 L219.152186,76.47098 L219.152186,41.5556586 C219.152186,37.6285578 218.411576,34.9510293 216.930334,33.5229926 C215.449092,32.094956 213.474133,31.3809484 211.005396,31.3809484 C209.100942,31.3809484 207.46102,31.6665514 206.085581,32.2377661 C204.710142,32.8089807 203.422891,33.6300895 202.223791,34.701117 C201.236296,35.7007426 200.407518,36.8967054 199.737433,38.2890411 C199.067347,39.6813768 198.732309,41.198643 198.732309,42.8408851 L198.732309,76.47098 L183.919963,76.47098 L183.919963,20.5636249 Z M268.373847,0 L319.899651,0 L319.899651,13.601981 L284.138415,13.601981 L284.138415,30.3099262 L317.783601,30.3099262 L317.783601,44.0190095 L284.138415,44.0190095 L284.138415,62.8689989 L322.121503,62.8689989 L320.534466,76.47098 L268.373847,76.47098 L268.373847,0 Z M362.444,69.4022339 C360.257405,71.9012981 357.806339,73.9362198 355.090729,75.5070601 C352.375118,77.0779004 348.866038,77.8633087 344.563383,77.8633087 C342.094646,77.8633087 339.749381,77.5420053 337.527518,76.8993888 C335.305655,76.2567723 333.365963,75.2571617 331.708382,73.9005269 C330.050802,72.5438921 328.728284,70.8124236 327.74079,68.7060695 C326.753295,66.5997155 326.259555,64.0828387 326.259555,61.1553635 C326.259555,57.2996646 327.105966,54.1580311 328.798814,51.7303688 C330.491662,49.3027065 332.713492,47.4105863 335.46437,46.0539515 C338.215248,44.6973167 341.301123,43.7334064 344.722086,43.1621918 C348.14305,42.5909771 351.616863,42.2339733 355.14363,42.0911697 L362.232395,41.769863 L362.232395,38.9852055 C362.232395,35.5579175 361.297816,33.2016924 359.42863,31.9164594 C357.559444,30.6312265 355.355247,29.9886196 352.815975,29.9886196 C346.961543,29.9886196 343.611165,32.2377436 342.764741,36.736059 L329.222024,35.4508325 C330.209519,29.5958822 332.748753,25.3653871 336.839802,22.7592202 C340.930852,20.1530534 346.432525,18.8499895 353.344988,18.8499895 C357.577108,18.8499895 361.174356,19.367645 364.13684,20.4029715 C367.099324,21.4382981 369.479856,22.9198639 371.278507,24.8477134 C373.077158,26.7755629 374.382042,29.1139378 375.193198,31.8629083 C376.004354,34.6118789 376.409927,37.6999618 376.409927,41.1272497 L376.409927,76.47098 L362.444,76.47098 L362.444,69.4022339 Z M362.126593,51.5161644 L355.56684,51.837471 C352.463285,51.9802747 349.959318,52.3015781 348.054864,52.8013909 C346.15041,53.3012038 344.686824,53.9259604 343.664062,54.6756797 C342.641299,55.4253989 341.95359,56.3000582 341.600913,57.2996839 C341.248237,58.2993095 341.071901,59.4060213 341.071901,60.6198525 C341.071901,62.4763001 341.70671,63.9400157 342.976346,65.0110432 C344.245982,66.0820707 346.009338,66.6175764 348.266469,66.6175764 C352.075377,66.6175764 355.178885,65.7250669 357.577087,63.9400211 C358.917258,62.9403954 360.010539,61.6730319 360.856963,60.1378925 C361.703387,58.6027531 362.126593,56.6927828 362.126593,54.4079241 L362.126593,51.5161644 Z M398.216992,58.6920126 C398.710739,61.9764969 400.015623,64.1185198 402.131683,65.1181454 C404.247743,66.1177711 406.786977,66.6175764 409.749461,66.6175764 C413.276228,66.6175764 415.797828,66.1713216 417.314338,65.2787987 C418.830847,64.3862758 419.589091,62.9404104 419.589091,60.9411591 C419.589091,59.5131225 419.112984,58.2636091 418.160757,57.1925817 C417.20853,56.1215542 415.392273,55.3718462 412.71193,54.9434352 L405.094152,53.6582086 C398.393295,52.5871812 393.402995,50.7486116 390.123102,48.1424447 C386.843209,45.5362778 385.203288,41.5913857 385.203288,36.3076502 C385.203288,33.5943805 385.785195,31.1667547 386.949028,29.0246997 C388.112861,26.8826447 389.752783,25.0619253 391.868843,23.5624868 C393.984903,22.0630484 396.506504,20.902786 399.43372,20.0816649 C402.360936,19.2605438 405.587879,18.8499895 409.114646,18.8499895 C413.487837,18.8499895 417.155619,19.2962442 420.118103,20.1887671 C423.080587,21.08129 425.496386,22.2772528 427.365572,23.7766913 C429.234759,25.2761297 430.645444,27.0611488 431.597671,29.1318019 C432.549898,31.202455 433.237608,33.4158786 433.66082,35.7721391 L420.435511,37.4857745 C419.800693,34.9153085 418.689778,33.0231884 417.102733,31.8093572 C415.515688,30.5955261 412.95882,29.9886196 409.432054,29.9886196 C407.457064,29.9886196 405.817142,30.1492713 404.512239,30.4705796 C403.207335,30.7918878 402.184588,31.2024422 401.443967,31.702255 C400.703346,32.2020678 400.174339,32.7732739 399.85693,33.4158904 C399.539521,34.0585069 399.380819,34.6654134 399.380819,35.236628 C399.380819,37.0216738 399.927459,38.3247377 401.020757,39.1458588 C402.114055,39.9669799 404.247717,40.6631373 407.421807,41.2343519 L414.40477,42.4124763 C418.284213,43.0550928 421.493523,43.8762015 424.032795,44.8758272 C426.572067,45.8754528 428.599927,47.107116 430.116437,48.5708535 C431.632946,50.0345911 432.690961,51.7660596 433.290511,53.7653109 C433.890061,55.7645622 434.189832,58.0850869 434.189832,60.7269547 C434.189832,66.0106903 432.214872,70.2411854 428.264893,73.4185669 C424.314915,76.5959484 418.2137,78.1846154 409.961066,78.1846154 C406.645905,78.1846154 403.489496,77.8811621 400.491745,77.2742466 C397.493993,76.667331 394.813691,75.6141698 392.450757,74.1147313 C390.087823,72.6152928 388.148131,70.6160715 386.631621,68.1170074 C385.115111,65.6179432 384.251066,62.4763098 384.03946,58.6920126 L398.216992,58.6920126 Z M446.263069,32.2377661 L437.587267,32.2377661 L437.587267,20.5636249 L446.263069,20.5636249 L446.263069,5.67641728 L461.075415,5.67641728 L461.075415,20.5636249 L473.771712,20.5636249 L473.771712,32.2377661 L461.075415,32.2377661 L461.075415,58.0493994 C461.075415,60.9768745 461.674957,62.9582456 462.874058,63.9935722 C464.073158,65.0288987 465.624912,65.5465543 467.529366,65.5465543 C468.516861,65.5465543 469.521974,65.4930037 470.544737,65.3859009 C471.567499,65.2787982 472.572612,65.0824461 473.560107,64.7968388 L475.676157,75.8283667 C473.630632,76.4709832 471.638039,76.9172379 469.698317,77.1671444 C467.758595,77.4170508 465.907071,77.5420021 464.143687,77.5420021 C458.077648,77.5420021 453.581088,76.0782865 450.653872,73.1508114 C447.726656,70.2233363 446.263069,65.2966837 446.263069,58.370706 L446.263069,32.2377661 Z" id="Penn-East"></path>
            </g>
            <g>
                <g>
                    <polygon fill="#E5B12E" points="75.655272 0 45.2686764 45.3649778 108.04729 45.3649778"></polygon>
                    <polygon fill="#E5B12E" points="45.268608 108.037776 77.6613102 153.402754 108.047221 108.037776"></polygon>
                    <polygon fill="#E5B12E" points="0 77.652344 45.3642933 108.037571 45.3642933 45.2596418"></polygon>
                    <polygon fill="#005AE1" points="108.047016 108.142496 153.411994 75.7497938 108.047016 45.3645671"></polygon>
                </g>
            </g>
        </g>
    </g>
</svg>
