<?xml version="1.0" standalone="no"?>
<!DOCTYPE svg PUBLIC "-//W3C//DTD SVG 20010904//EN"
 "http://www.w3.org/TR/2001/REC-SVG-20010904/DTD/svg10.dtd">
<svg version="1.0" xmlns="http://www.w3.org/2000/svg"
 width="210.000000pt" height="210.000000pt" viewBox="0 0 210.000000 210.000000"
 preserveAspectRatio="xMidYMid meet">
<metadata>
Created by potrace 1.15, written by Peter Selinger 2001-2017
</metadata>
<g transform="translate(0.000000,210.000000) scale(0.100000,-0.100000)"
fill="#e8257f" stroke="none">
<path d="M873 2076 c-751 -143 -1102 -994 -671 -1629 91 -135 271 -284 423
-352 275 -122 604 -121 870 4 118 55 187 103 288 201 516 495 383 1362 -258
1680 -144 72 -265 101 -440 106 -92 2 -165 -1 -212 -10z m-99 -661 c64 -14
121 -41 173 -82 l22 -18 -49 -57 -50 -56 -50 33 c-124 83 -288 49 -352 -74
-23 -44 -28 -66 -28 -125 0 -87 21 -137 78 -188 85 -77 221 -77 320 -2 l34 26
49 -48 49 -48 -27 -29 c-41 -42 -142 -88 -215 -97 -176 -21 -340 64 -414 216
-39 80 -46 211 -16 297 44 122 145 216 270 248 83 22 118 23 206 4z m496 -255
c0 -233 1 -254 21 -291 37 -74 143 -100 229 -56 77 39 80 53 80 344 l0 253 85
0 85 0 0 -192 c0 -316 -18 -405 -95 -483 -58 -58 -114 -78 -225 -83 -119 -5
-191 18 -255 83 -78 77 -87 120 -93 418 l-5 257 87 0 86 0 0 -250z"/>
</g>
</svg>
